<svg width="233" height="60" viewBox="0 0 233 60" fill="none" xmlns="http://www.w3.org/2000/svg">
<g filter="url(#filter0_d)">
<path fill-rule="evenodd" clip-rule="evenodd" d="M4.71482 35.9327L4.03044 1.40951L25.178 1.33176C30.4976 1.33177 34.7479 2.62325 37.763 5.36492C40.8461 8.07364 42.3235 11.9371 42.3235 16.7819C42.3235 19.8738 41.5348 22.7649 39.9636 25.436C38.5648 27.8138 36.653 29.8459 34.2485 31.5355C38.0895 37.4697 41.5676 42.481 44.6836 46.5736L44.9445 46.9162L44.6731 49.3584L44.0162 49.5745C40.1918 50.8326 36.1479 51.6101 31.8879 51.9108L31.4637 51.9408L29.7863 50.5779L29.6842 50.3873C26.8607 45.1167 24.3944 40.2687 22.2863 35.844H17.8087L18.251 51.1027H4L4.71482 35.9327ZM26.4125 22.4623L26.4203 22.4506C27.1543 21.3496 27.5664 19.8561 27.5664 17.8876C27.5664 15.7558 27.002 14.4129 26.0888 13.6093L26.0716 13.5942L26.0551 13.5784C25.1542 12.7149 23.6117 12.1355 21.2059 12.0359L18.2727 12.1988L18.0192 24.7481L23.1568 24.9843C24.6986 24.3648 25.7501 23.5144 26.405 22.4742L26.4125 22.4623ZM79.1556 46.1955L79.1505 46.2009C75.5047 50.0052 70.3753 51.8398 63.9257 51.8398C58.0101 51.8398 53.276 50.1242 49.8792 46.5682L49.8763 46.5651L49.8734 46.5621C46.5352 43.0119 44.9374 38.0707 44.9374 31.8931C44.9374 25.3617 46.6882 20.1458 50.3279 16.4005C53.9746 12.6482 59.1021 10.8408 65.5474 10.8408C71.4542 10.8408 76.1643 12.5267 79.5147 16.0328C82.909 19.4838 84.5358 24.3075 84.5358 30.3451C84.5358 37.0179 82.7885 42.352 79.1556 46.1955ZM60.9238 22.5802L60.9061 22.5899C60.2393 22.9567 59.6653 23.6651 59.2776 24.9145L59.276 24.9197L59.2743 24.9248C58.8824 26.144 58.6625 27.9551 58.6625 30.4189C58.6625 33.5705 58.8818 35.9155 59.2875 37.5043C59.7359 39.019 60.3838 39.9343 61.1319 40.433C61.9187 40.9576 63.1284 41.2843 64.884 41.2843C66.6079 41.2843 67.7939 41.0257 68.5492 40.6164C69.2468 40.1915 69.818 39.4566 70.1989 38.2717C70.5903 37.0539 70.8107 35.2194 70.8107 32.704C70.8107 29.5913 70.59 27.2644 70.1811 25.6744C69.7804 24.1159 69.135 23.1951 68.3605 22.7023L68.3509 22.6961L68.3413 22.6898C67.5582 22.1677 66.327 21.8385 64.5155 21.8385C62.844 21.8385 61.6894 22.1208 60.9412 22.5697L60.9238 22.5802ZM116.48 13.1226L114.588 24.3058L111.791 24.9415L111.397 24.6585C109.894 23.5779 108.353 22.7393 106.776 22.1361L106.771 22.1342L106.766 22.1322C105.209 21.5189 103.975 21.2488 103.032 21.2488C102.165 21.2488 101.627 21.4544 101.289 21.7366L101.285 21.7397L101.281 21.7427C100.986 21.9842 100.865 22.2457 100.865 22.6053C100.865 23.0016 101.03 23.3796 101.627 23.7658C102.373 24.2484 103.716 24.9039 105.718 25.7342C107.9 26.5778 109.74 27.4319 111.224 28.3003C112.848 29.1701 114.217 30.4123 115.333 32.0035C116.571 33.6966 117.156 35.7721 117.156 38.1587C117.156 40.5602 116.54 42.8098 115.316 44.8884C114.107 47.0269 112.182 48.7071 109.628 49.959C107.078 51.2329 103.954 51.8398 100.305 51.8398C95.903 51.8398 91.6023 51.0804 87.4079 49.5643L86.5741 49.2629L88.3267 37.9962L90.491 36.4091L91.1408 36.9846C92.7747 38.4317 94.594 39.5988 96.6024 40.4873C98.6345 41.337 100.327 41.7266 101.705 41.7266C102.567 41.7266 103.152 41.5231 103.556 41.2126C103.958 40.903 104.094 40.5914 104.094 40.2227C104.094 39.8264 103.929 39.4484 103.332 39.0622C102.586 38.5791 101.24 37.9229 99.2357 37.0914C96.9985 36.1963 95.1106 35.317 93.5825 34.451L93.5756 34.4472L93.5688 34.4432C92.0041 33.5259 90.6445 32.2666 89.4859 30.6867L89.4789 30.6771L89.4721 30.6674C88.2844 28.9707 87.7296 26.8726 87.7296 24.4481C87.7296 21.8913 88.3989 19.5703 89.7495 17.5173L89.7531 17.5118C91.1536 15.4112 93.1338 13.7911 95.6466 12.6378C98.1793 11.4261 101.144 10.8408 104.507 10.8408C108.224 10.8408 111.934 11.5033 115.63 12.8197L116.48 13.1226ZM151.045 13.0803L150.265 22.7808L141.433 22.2808H141.194L140.918 37.9275L141.4 51.1027H128.099L128.666 39.0269L128.39 22.2808H128.151L119.709 22.7499L118.313 21.2149L119.093 11.5042H149.899L151.045 13.0803ZM183.303 40.0137L184.617 41.4734L183.749 51.1027H154.585L155.152 39.0286L154.616 11.5042H183.644L184.909 13.0503L184.04 22.6135L173.31 22.2071H167.819L167.727 25.8045H172.943L179.909 25.5643L181.069 27.1599L180.291 36.7601L172.215 36.5077L167.446 36.568L167.404 37.9315L167.507 40.3997H172.648L183.303 40.0137ZM189.489 39.0286L188.953 11.5087L207.815 11.4305C212.338 11.4305 215.988 12.4712 218.608 14.7066C221.258 16.9177 222.528 20.074 222.528 24.0058C222.528 26.4643 221.884 28.7684 220.606 30.8988C219.509 32.7264 218.044 34.3057 216.227 35.6396C218.426 38.8904 221.184 42.602 224.505 46.7766L224.784 47.1273L224.502 49.5283L223.824 49.7308C219.973 50.8812 216.302 51.5622 212.816 51.7643L212.437 51.7862L210.379 50.3164L210.261 50.0996C208.307 46.5175 206.506 43.0433 204.858 39.6771H201.783L202.226 51.1027H188.922L189.489 39.0286ZM207.653 22.4091L207.642 22.4C207.036 21.8946 205.894 21.4987 203.996 21.3984L202.161 21.5395L201.985 29.4065L205.663 29.626C206.783 29.1947 207.48 28.6496 207.878 28.0528L207.881 28.0474L207.885 28.0421C208.373 27.3289 208.655 26.3762 208.655 25.1115C208.655 23.6917 208.254 22.8832 207.664 22.4179L207.653 22.4091ZM229 1.02301L228.788 7.21727L228.984 12.3629H222.908L223.11 7.58388V6.82437L222.111 7.03693L221.056 6.24634V1.83282L227.568 0L229 1.02301Z" fill="#333333"/>
</g>
<defs>
<filter id="filter0_d" x="0" y="0" width="233" height="59.9408" filterUnits="userSpaceOnUse" color-interpolation-filters="sRGB">
<feFlood flood-opacity="0" result="BackgroundImageFix"/>
<feColorMatrix in="SourceAlpha" type="matrix" values="0 0 0 0 0 0 0 0 0 0 0 0 0 0 0 0 0 0 127 0"/>
<feOffset dy="4"/>
<feGaussianBlur stdDeviation="2"/>
<feColorMatrix type="matrix" values="0 0 0 0 0 0 0 0 0 0 0 0 0 0 0 0 0 0 0.25 0"/>
<feBlend mode="normal" in2="BackgroundImageFix" result="effect1_dropShadow"/>
<feBlend mode="normal" in="SourceGraphic" in2="effect1_dropShadow" result="shape"/>
</filter>
</defs>
</svg>
