<svg width="225" height="52" viewBox="0 0 225 52" fill="none" xmlns="http://www.w3.org/2000/svg">
<path fill-rule="evenodd" clip-rule="evenodd" d="M0.714816 35.9327L0.0304364 1.40951L21.178 1.33176C26.4976 1.33177 30.7479 2.62325 33.763 5.36492C36.8461 8.07364 38.3235 11.9371 38.3235 16.7819C38.3235 19.8738 37.5348 22.7649 35.9636 25.436C34.5648 27.8138 32.653 29.8459 30.2485 31.5355C34.0895 37.4697 37.5676 42.481 40.6836 46.5736L40.9445 46.9162L40.6731 49.3584L40.0162 49.5745C36.1918 50.8326 32.1479 51.6101 27.8879 51.9108L27.4637 51.9408L25.7863 50.5779L25.6842 50.3873C22.8607 45.1167 20.3944 40.2687 18.2863 35.844H13.8087L14.251 51.1027H0L0.714816 35.9327ZM22.4125 22.4623L22.4203 22.4506C23.1543 21.3496 23.5664 19.8561 23.5664 17.8876C23.5664 15.7558 23.002 14.4129 22.0888 13.6093L22.0716 13.5942L22.0551 13.5784C21.1542 12.7149 19.6117 12.1355 17.2059 12.0359L14.2727 12.1988L14.0192 24.7481L19.1568 24.9843C20.6986 24.3648 21.7501 23.5144 22.405 22.4742L22.4125 22.4623ZM75.1556 46.1955L75.1505 46.2009C71.5047 50.0052 66.3753 51.8398 59.9257 51.8398C54.0101 51.8398 49.276 50.1242 45.8792 46.5682L45.8763 46.5652L45.8734 46.5621C42.5352 43.0119 40.9374 38.0707 40.9374 31.8931C40.9374 25.3617 42.6882 20.1458 46.3279 16.4005C49.9746 12.6482 55.1021 10.8408 61.5474 10.8408C67.4542 10.8408 72.1643 12.5267 75.5147 16.0328C78.909 19.4838 80.5358 24.3075 80.5358 30.3451C80.5358 37.0179 78.7885 42.352 75.1556 46.1955ZM56.9238 22.5802L56.9061 22.5899C56.2393 22.9567 55.6653 23.6651 55.2776 24.9145L55.276 24.9197L55.2743 24.9248C54.8824 26.144 54.6625 27.9551 54.6625 30.4189C54.6625 33.5705 54.8818 35.9155 55.2875 37.5043C55.7359 39.019 56.3838 39.9343 57.1319 40.433C57.9187 40.9576 59.1284 41.2843 60.884 41.2843C62.6079 41.2843 63.7939 41.0257 64.5492 40.6164C65.2468 40.1915 65.818 39.4566 66.1989 38.2717C66.5903 37.0539 66.8107 35.2194 66.8107 32.704C66.8107 29.5913 66.59 27.2644 66.1812 25.6744C65.7804 24.1159 65.135 23.1951 64.3605 22.7023L64.3509 22.6961L64.3413 22.6898C63.5582 22.1677 62.327 21.8385 60.5155 21.8385C58.844 21.8385 57.6894 22.1208 56.9412 22.5697L56.9238 22.5802ZM112.48 13.1226L110.588 24.3058L107.791 24.9415L107.397 24.6585C105.894 23.5779 104.353 22.7393 102.776 22.1361L102.771 22.1342L102.766 22.1322C101.209 21.5189 99.9748 21.2488 99.0323 21.2488C98.1651 21.2488 97.6273 21.4544 97.2887 21.7366L97.285 21.7397L97.2812 21.7427C96.986 21.9842 96.865 22.2457 96.865 22.6053C96.865 23.0016 97.0299 23.3796 97.6266 23.7658C98.3726 24.2484 99.7159 24.9039 101.718 25.7342C103.9 26.5778 105.74 27.4319 107.224 28.3003C108.848 29.1701 110.217 30.4123 111.333 32.0035C112.571 33.6966 113.156 35.7721 113.156 38.1587C113.156 40.5602 112.54 42.8098 111.316 44.8884C110.107 47.0269 108.182 48.7071 105.628 49.959C103.078 51.2329 99.9539 51.8398 96.3049 51.8398C91.903 51.8398 87.6023 51.0804 83.4079 49.5643L82.5741 49.2629L84.3267 37.9962L86.491 36.409L87.1408 36.9846C88.7747 38.4317 90.594 39.5988 92.6024 40.4873C94.6345 41.337 96.3274 41.7266 97.7055 41.7266C98.5673 41.7266 99.152 41.5231 99.5556 41.2126C99.9581 40.903 100.094 40.5914 100.094 40.2227C100.094 39.8264 99.929 39.4484 99.3323 39.0622C98.5856 38.5791 97.2405 37.9229 95.2357 37.0914C92.9985 36.1963 91.1106 35.317 89.5825 34.451L89.5756 34.4472L89.5688 34.4432C88.0041 33.5259 86.6445 32.2666 85.4859 30.6867L85.4789 30.6771L85.4721 30.6674C84.2844 28.9707 83.7296 26.8726 83.7296 24.4481C83.7296 21.8913 84.3989 19.5703 85.7495 17.5173L85.7531 17.5118C87.1536 15.4112 89.1338 13.7911 91.6466 12.6378C94.1793 11.4261 97.1436 10.8408 100.507 10.8408C104.224 10.8408 107.934 11.5033 111.63 12.8197L112.48 13.1226ZM147.045 13.0803L146.265 22.7808L137.433 22.2808H137.194L136.918 37.9275L137.4 51.1027H124.099L124.666 39.0269L124.39 22.2808H124.151L115.709 22.7499L114.313 21.2149L115.093 11.5042H145.899L147.045 13.0803ZM179.303 40.0137L180.617 41.4734L179.749 51.1027H150.585L151.152 39.0286L150.616 11.5042H179.644L180.909 13.0503L180.04 22.6135L169.31 22.2071H163.819L163.727 25.8045H168.943L175.909 25.5643L177.069 27.1599L176.291 36.7601L168.215 36.5077L163.446 36.568L163.404 37.9315L163.507 40.3997H168.648L179.303 40.0137ZM185.489 39.0286L184.953 11.5087L203.815 11.4305C208.338 11.4305 211.988 12.4712 214.608 14.7066C217.258 16.9177 218.528 20.074 218.528 24.0058C218.528 26.4643 217.884 28.7684 216.606 30.8988C215.509 32.7264 214.044 34.3057 212.227 35.6396C214.426 38.8903 217.184 42.602 220.505 46.7766L220.784 47.1273L220.502 49.5283L219.824 49.7308C215.973 50.8812 212.302 51.5622 208.816 51.7643L208.437 51.7862L206.379 50.3164L206.261 50.0996C204.307 46.5175 202.506 43.0433 200.858 39.6771H197.783L198.226 51.1027H184.922L185.489 39.0286ZM203.653 22.4091L203.642 22.4C203.036 21.8946 201.894 21.4987 199.996 21.3984L198.161 21.5395L197.985 29.4065L201.663 29.626C202.783 29.1947 203.48 28.6496 203.878 28.0528L203.881 28.0474L203.885 28.0421C204.373 27.3289 204.655 26.3762 204.655 25.1115C204.655 23.6917 204.254 22.8832 203.664 22.4179L203.653 22.4091ZM225 1.02301L224.788 7.21727L224.984 12.3629H218.908L219.11 7.58388V6.82437L218.111 7.03693L217.056 6.24634V1.83282L223.568 0L225 1.02301Z" fill="#333333"/>
</svg>
