<svg width="233" height="60" viewBox="0 0 233 60" fill="none" xmlns="http://www.w3.org/2000/svg">
<g filter="url(#filter0_d)">
<path d="M32.7704 31.2298C36.8492 37.5691 40.5348 42.901 43.8273 47.2255L43.6799 48.5523C39.9451 49.7809 35.9892 50.5426 31.8121 50.8375L30.6327 49.8792C27.6842 44.3753 25.1288 39.3382 22.9665 34.768H16.7009L17.1432 50.0266H5.12793L5.79135 35.9474L5.12793 2.48163L25.1779 2.40792C30.3378 2.40792 34.2938 3.66104 37.0457 6.16729C39.8468 8.62439 41.2474 12.1626 41.2474 16.782C41.2474 19.6814 40.5102 22.3842 39.036 24.8904C37.5617 27.3967 35.4732 29.5098 32.7704 31.2298ZM16.922 25.775L23.3351 26.0698C25.1533 25.3818 26.4802 24.3744 27.3156 23.0476C28.2001 21.7208 28.6424 20.0008 28.6424 17.8877C28.6424 15.578 28.0281 13.8826 26.7996 12.8015C25.6202 11.6712 23.7528 11.0569 21.1974 10.9586L17.2169 11.1798L16.922 25.775Z" fill="#EB5757"/>
<path d="M65.5474 11.9169C71.2479 11.9169 75.6461 13.5386 78.742 16.782C81.8871 19.9762 83.4597 24.4973 83.4597 30.3452C83.4597 36.832 81.7643 41.869 78.3735 45.4564C74.9826 48.9946 70.1667 50.7637 63.9257 50.7637C58.2252 50.7637 53.8024 49.1175 50.6573 45.825C47.5614 42.5324 46.0134 37.8885 46.0134 31.8932C46.0134 25.5538 47.7088 20.6396 51.0996 17.1505C54.4904 13.6615 59.3063 11.9169 65.5474 11.9169ZM64.5154 20.7625C62.7463 20.7625 61.3703 21.0573 60.3875 21.647C59.4046 22.1876 58.692 23.1705 58.2498 24.5956C57.8075 25.9716 57.5864 27.9127 57.5864 30.4189C57.5864 33.6132 57.8075 36.0703 58.2498 37.7902C58.7412 39.4611 59.5029 40.6405 60.5349 41.3285C61.5669 42.0164 63.0165 42.3604 64.8839 42.3604C66.7022 42.3604 68.1028 42.0902 69.0856 41.5496C70.0684 40.9599 70.781 39.9771 71.2233 38.6011C71.6656 37.2251 71.8867 35.2594 71.8867 32.704C71.8867 29.5589 71.6656 27.1264 71.2233 25.4064C70.781 23.6864 70.0193 22.4825 68.9382 21.7945C67.9062 21.1065 66.4319 20.7625 64.5154 20.7625Z" fill="#EB5757"/>
<path d="M104.506 11.9169C108.094 11.9169 111.681 12.5558 115.269 13.8335L113.647 23.4162L112.025 23.7847C110.453 22.6545 108.831 21.7699 107.16 21.1311C105.538 20.4922 104.162 20.1728 103.032 20.1728C102 20.1728 101.189 20.4185 100.6 20.9099C100.059 21.3522 99.7889 21.9173 99.7889 22.6053C99.7889 23.4407 100.207 24.1287 101.042 24.6693C101.877 25.2099 103.303 25.8978 105.317 26.7333C107.48 27.5687 109.273 28.4041 110.698 29.2395C112.173 30.0258 113.426 31.156 114.458 32.6303C115.539 34.1046 116.079 35.9474 116.079 38.1588C116.079 40.3702 115.514 42.4342 114.384 44.3507C113.303 46.2672 111.558 47.8152 109.15 48.9946C106.792 50.174 103.843 50.7637 100.305 50.7637C96.0295 50.7637 91.8524 50.0266 87.7736 48.5523L89.3216 38.6011L90.4273 37.7902C92.1473 39.3136 94.0638 40.5422 96.1769 41.4759C98.29 42.3604 100.133 42.8027 101.705 42.8027C102.737 42.8027 103.573 42.557 104.212 42.0656C104.85 41.5742 105.17 40.9599 105.17 40.2228C105.17 39.3873 104.752 38.6994 103.917 38.1588C103.081 37.6182 101.656 36.9302 99.6414 36.0948C97.43 35.2103 95.5872 34.3503 94.1129 33.5149C92.6878 32.6795 91.4347 31.5246 90.3536 30.0503C89.3216 28.5761 88.8056 26.7087 88.8056 24.4481C88.8056 22.0893 89.4199 19.9762 90.6484 18.1088C91.9261 16.1923 93.7444 14.6934 96.1032 13.6123C98.462 12.482 101.263 11.9169 104.506 11.9169Z" fill="#EB5757"/>
<path d="M149.94 13.3912L149.277 21.647L141.463 21.2048H140.136L139.842 37.9377L140.284 50.0266H129.227L129.743 39.0434L129.448 21.2048H128.121L120.16 21.647L119.423 20.8362L120.086 12.5803H149.351L149.94 13.3912Z" fill="#EB5757"/>
<path d="M182.839 41.1073L183.503 41.8445L182.766 50.0266H155.713L156.229 39.0434L155.713 12.5803H183.134L183.798 13.3912L183.061 21.4996L173.33 21.1311H166.77L166.622 26.8807H172.962L179.375 26.6595L179.965 27.4704L179.301 35.6525L172.225 35.4314L166.401 35.5051L166.328 37.9377L166.475 41.4759H172.667L182.839 41.1073Z" fill="#EB5757"/>
<path d="M214.744 35.3577C217.054 38.8468 220.027 42.8764 223.663 47.4467L223.516 48.6998C219.732 49.83 216.144 50.4935 212.754 50.69L211.206 49.5843C209.142 45.8004 207.25 42.1393 205.53 38.6011H200.665L201.107 50.0266H190.05L190.566 39.0434L190.05 12.5803L207.815 12.5066C212.189 12.5066 215.555 13.514 217.914 15.5289C220.272 17.4945 221.452 20.3202 221.452 24.0059C221.452 26.2664 220.862 28.3795 219.683 30.3452C218.503 32.3109 216.857 33.9817 214.744 35.3577ZM209.731 25.1116C209.731 23.4899 209.265 22.3105 208.331 21.5733C207.446 20.8362 205.997 20.4185 203.982 20.3202L201.107 20.5414L200.886 30.4189L205.825 30.7138C207.201 30.2223 208.183 29.5344 208.773 28.6498C209.412 27.7161 209.731 26.5367 209.731 25.1116Z" fill="#EB5757"/>
<path d="M227.905 1.56318L227.711 7.21918L227.866 11.2869H224.031L224.186 7.60658V5.49526L222.365 5.88266L222.132 5.70833V2.64789L227.362 1.17578L227.905 1.56318Z" fill="#EB5757"/>
<path fill-rule="evenodd" clip-rule="evenodd" d="M25.178 2.40787C30.3379 2.40787 34.2938 3.66099 37.0458 6.16724C39.8469 8.62434 41.2474 12.1626 41.2474 16.7819C41.2474 19.6813 40.5103 22.3841 39.036 24.8904C37.5974 27.3361 35.5738 29.4074 32.9652 31.1044C32.9006 31.1464 32.8357 31.1882 32.7704 31.2297C32.9658 31.5334 33.1603 31.8348 33.354 32.1339C37.2015 38.0776 40.6926 43.1081 43.8274 47.2255L43.68 48.5523C39.9452 49.7808 35.9892 50.5426 31.8122 50.8374L30.6327 49.8791C27.6842 44.3752 25.1288 39.3382 22.9666 34.7679H16.701L17.1432 50.0266H5.128L5.79142 35.9473L5.128 2.48158L25.178 2.40787ZM4.71482 35.9327L4.03044 1.40951L25.178 1.33176C30.4976 1.33177 34.7479 2.62325 37.763 5.36492C40.8461 8.07364 42.3235 11.9371 42.3235 16.7819C42.3235 19.8738 41.5348 22.7649 39.9636 25.436C38.5648 27.8138 36.653 29.8459 34.2485 31.5355C38.0895 37.4697 41.5676 42.481 44.6836 46.5736L44.9445 46.9162L44.6731 49.3584L44.0162 49.5745C40.1918 50.8326 36.1479 51.6101 31.8879 51.9108L31.4637 51.9408L29.7863 50.5779L29.6842 50.3873C26.8607 45.1167 24.3944 40.2687 22.2863 35.844H17.8087L18.251 51.1027H4L4.71482 35.9327ZM26.4125 22.4623L26.4203 22.4506C27.1543 21.3496 27.5664 19.8561 27.5664 17.8876C27.5664 15.7558 27.002 14.4129 26.0888 13.6093L26.0716 13.5942L26.0551 13.5784C25.1542 12.7149 23.6117 12.1355 21.2059 12.0359L18.2727 12.1988L18.0192 24.7481L23.1568 24.9843C24.6986 24.3648 25.7501 23.5144 26.405 22.4742L26.4125 22.4623ZM23.3351 26.0698L16.9221 25.7749L17.217 11.1797L21.1975 10.9586C23.7529 11.0569 25.6203 11.6712 26.7997 12.8014C28.0282 13.8825 28.6425 15.578 28.6425 17.8876C28.6425 20.0007 28.2002 21.7207 27.3157 23.0475C26.4802 24.3744 25.1534 25.3818 23.3351 26.0698ZM79.1556 46.1955L79.1505 46.2009C75.5047 50.0052 70.3753 51.8398 63.9257 51.8398C58.0101 51.8398 53.276 50.1242 49.8792 46.5682L49.8763 46.5651L49.8734 46.5621C46.5352 43.0119 44.9374 38.0707 44.9374 31.8931C44.9374 25.3617 46.6882 20.1458 50.3279 16.4005C53.9746 12.6482 59.1021 10.8408 65.5474 10.8408C71.4542 10.8408 76.1643 12.5267 79.5147 16.0328C82.909 19.4838 84.5358 24.3075 84.5358 30.3451C84.5358 37.0179 82.7885 42.352 79.1556 46.1955ZM78.7421 16.7819C75.6461 13.5386 71.2479 11.9169 65.5474 11.9169C59.3064 11.9169 54.4905 13.6614 51.0997 17.1505C47.7089 20.6396 46.0135 25.5538 46.0135 31.8931C46.0135 37.8885 47.5614 42.5324 50.6574 45.8249C53.8025 49.1174 58.2253 50.7637 63.9257 50.7637C70.1668 50.7637 74.9827 48.9946 78.3735 45.4563C81.7643 41.869 83.4597 36.8319 83.4597 30.3451C83.4597 24.4972 81.8872 19.9762 78.7421 16.7819ZM60.9238 22.5802L60.9061 22.5899C60.2393 22.9567 59.6653 23.6651 59.2776 24.9145L59.276 24.9197L59.2743 24.9248C58.8824 26.144 58.6625 27.9551 58.6625 30.4189C58.6625 33.5705 58.8818 35.9155 59.2875 37.5043C59.7359 39.019 60.3838 39.9343 61.1319 40.433C61.9187 40.9576 63.1284 41.2843 64.884 41.2843C66.6079 41.2843 67.7939 41.0257 68.5492 40.6164C69.2468 40.1915 69.818 39.4566 70.1989 38.2717C70.5903 37.0539 70.8107 35.2194 70.8107 32.704C70.8107 29.5913 70.59 27.2644 70.1811 25.6744C69.7804 24.1159 69.135 23.1951 68.3605 22.7023L68.3509 22.6961L68.3413 22.6898C67.5582 22.1677 66.327 21.8385 64.5155 21.8385C62.844 21.8385 61.6894 22.1208 60.9412 22.5697L60.9238 22.5802ZM69.0857 41.5495C68.1028 42.0901 66.7023 42.3604 64.884 42.3604C63.0166 42.3604 61.5669 42.0164 60.5349 41.3284C59.503 40.6404 58.7413 39.461 58.2498 37.7902C57.8076 36.0702 57.5864 33.6131 57.5864 30.4189C57.5864 27.9126 57.8076 25.9715 58.2498 24.5955C58.6921 23.1704 59.4047 22.1876 60.3875 21.647C61.3704 21.0573 62.7463 20.7624 64.5155 20.7624C66.432 20.7624 67.9063 21.1064 68.9382 21.7944C70.0194 22.4824 70.7811 23.6864 71.2233 25.4064C71.6656 27.1263 71.8868 29.5589 71.8868 32.704C71.8868 35.2594 71.6656 37.225 71.2233 38.601C70.7811 39.977 70.0685 40.9598 69.0857 41.5495ZM116.48 13.1226L114.588 24.3058L111.791 24.9415L111.397 24.6585C109.894 23.5779 108.353 22.7393 106.776 22.1361L106.771 22.1342L106.766 22.1322C105.209 21.5189 103.975 21.2488 103.032 21.2488C102.165 21.2488 101.627 21.4544 101.289 21.7366L101.285 21.7397L101.281 21.7427C100.986 21.9842 100.865 22.2457 100.865 22.6053C100.865 23.0016 101.03 23.3796 101.627 23.7658C102.373 24.2484 103.716 24.9039 105.718 25.7342C107.9 26.5778 109.74 27.4319 111.224 28.3003C112.848 29.1701 114.217 30.4123 115.333 32.0035C116.571 33.6966 117.156 35.7721 117.156 38.1587C117.156 40.5602 116.54 42.8098 115.316 44.8884C114.107 47.0269 112.182 48.7071 109.628 49.959C107.078 51.2329 103.954 51.8398 100.305 51.8398C95.903 51.8398 91.6023 51.0804 87.4079 49.5643L86.5741 49.2629L88.3267 37.9962L90.491 36.4091L91.1408 36.9846C92.7747 38.4317 94.594 39.5988 96.6024 40.4873C98.6345 41.337 100.327 41.7266 101.705 41.7266C102.567 41.7266 103.152 41.5231 103.556 41.2126C103.958 40.903 104.094 40.5914 104.094 40.2227C104.094 39.8264 103.929 39.4484 103.332 39.0622C102.586 38.5791 101.24 37.9229 99.2357 37.0914C96.9985 36.1963 95.1106 35.317 93.5825 34.451L93.5756 34.4472L93.5688 34.4432C92.0041 33.5259 90.6445 32.2666 89.4859 30.6867L89.4789 30.6771L89.4721 30.6674C88.2844 28.9707 87.7296 26.8726 87.7296 24.4481C87.7296 21.8913 88.3989 19.5703 89.7495 17.5173L89.7531 17.5118C91.1536 15.4112 93.1338 13.7911 95.6466 12.6378C98.1793 11.4261 101.144 10.8408 104.507 10.8408C108.224 10.8408 111.934 11.5033 115.63 12.8197L116.48 13.1226ZM99.6415 36.0948C101.656 36.9302 103.081 37.6182 103.917 38.1587C104.752 38.6993 105.17 39.3873 105.17 40.2227C105.17 40.9598 104.851 41.5741 104.212 42.0655C103.573 42.557 102.737 42.8027 101.705 42.8027C100.133 42.8027 98.2901 42.3604 96.177 41.4758C94.0639 40.5421 92.1473 39.3136 90.4273 37.7902L89.3217 38.601L87.7737 48.5523C91.8525 50.0266 96.0295 50.7637 100.305 50.7637C103.843 50.7637 106.792 50.174 109.15 48.9946C111.558 47.8152 113.303 46.2672 114.384 44.3506C115.514 42.4341 116.08 40.3701 116.08 38.1587C116.08 35.9473 115.539 34.1045 114.458 32.6303C113.426 31.156 112.173 30.0257 110.698 29.2395C109.273 28.404 107.48 27.5686 105.317 26.7332C103.303 25.8978 101.877 25.2098 101.042 24.6692C100.207 24.1287 99.7889 23.4407 99.7889 22.6053C99.7889 21.9173 100.059 21.3521 100.6 20.9099C101.189 20.4184 102 20.1727 103.032 20.1727C104.163 20.1727 105.539 20.4922 107.16 21.131C108.831 21.7699 110.453 22.6544 112.025 23.7847L113.647 23.4161L115.269 13.8334C111.681 12.5557 108.094 11.9169 104.507 11.9169C101.263 11.9169 98.4621 12.482 96.1033 13.6123C93.7444 14.6934 91.9262 16.1922 90.6485 18.1088C89.4199 19.9762 88.8057 22.0893 88.8057 24.4481C88.8057 26.7086 89.3217 28.576 90.3536 30.0503C91.4348 31.5246 92.6879 32.6794 94.113 33.5148C95.5873 34.3502 97.4301 35.2102 99.6415 36.0948ZM151.045 13.0803L150.265 22.7808L141.433 22.2808H141.194L140.918 37.9275L141.4 51.1027H128.099L128.666 39.0269L128.39 22.2808H128.151L119.709 22.7499L118.313 21.2149L119.093 11.5042H149.899L151.045 13.0803ZM128.121 21.2047H129.448L129.743 39.0433L129.227 50.0266H140.284L139.842 37.9376L140.136 21.2047H141.463L149.277 21.647L149.94 13.3911L149.351 12.5803H120.087L119.423 20.8362L120.16 21.647L128.121 21.2047ZM183.303 40.0137L184.617 41.4734L183.749 51.1027H154.585L155.152 39.0286L154.616 11.5042H183.644L184.909 13.0503L184.04 22.6135L173.31 22.2071H167.819L167.727 25.8045H172.943L179.909 25.5643L181.069 27.1599L180.291 36.7601L172.215 36.5077L167.446 36.568L167.404 37.9315L167.507 40.3997H172.648L183.303 40.0137ZM172.667 41.4758H166.475L166.328 37.9376L166.401 35.5051L172.225 35.4314L179.301 35.6525L179.965 27.4703L179.375 26.6595L172.962 26.8806H166.623L166.77 21.131H173.33L183.061 21.4996L183.798 13.3911L183.134 12.5803H155.713L156.229 39.0433L155.713 50.0266H182.766L183.503 41.8444L182.839 41.1073L172.667 41.4758ZM207.815 12.5066C212.189 12.5066 215.555 13.514 217.914 15.5288C220.272 17.4945 221.452 20.3202 221.452 24.0058C221.452 26.2664 220.862 28.3795 219.683 30.3451C218.548 32.2365 216.981 33.8548 214.982 35.2002C214.903 35.2531 214.824 35.3056 214.744 35.3576C214.939 35.6519 215.138 35.95 215.343 36.252C217.56 39.5303 220.333 43.2618 223.663 47.4466L223.516 48.6997C219.732 49.83 216.145 50.4934 212.754 50.69L211.206 49.5843C209.142 45.8003 207.25 42.1392 205.53 38.601H200.665L201.107 50.0266H190.05L190.566 39.0433L190.05 12.5803L207.815 12.5066ZM189.489 39.0286L188.953 11.5087L207.815 11.4305C212.338 11.4305 215.988 12.4712 218.608 14.7066C221.258 16.9177 222.528 20.074 222.528 24.0058C222.528 26.4643 221.884 28.7684 220.606 30.8988C219.509 32.7264 218.044 34.3057 216.227 35.6396C218.426 38.8904 221.184 42.602 224.505 46.7766L224.784 47.1273L224.502 49.5283L223.824 49.7308C219.973 50.8812 216.302 51.5622 212.816 51.7643L212.437 51.7862L210.379 50.3164L210.261 50.0996C208.307 46.5175 206.506 43.0433 204.858 39.6771H201.783L202.226 51.1027H188.922L189.489 39.0286ZM207.653 22.4091L207.642 22.4C207.036 21.8946 205.894 21.4987 203.996 21.3984L202.161 21.5395L201.985 29.4065L205.663 29.626C206.783 29.1947 207.48 28.6496 207.878 28.0528L207.881 28.0474L207.885 28.0421C208.373 27.3289 208.655 26.3762 208.655 25.1115C208.655 23.6917 208.254 22.8832 207.664 22.4179L207.653 22.4091ZM205.825 30.7137L200.886 30.4189L201.107 20.5413L203.982 20.3202C205.997 20.4184 207.446 20.8362 208.331 21.5733C209.265 22.3104 209.731 23.4898 209.731 25.1115C209.731 26.5366 209.412 27.716 208.773 28.6497C208.184 29.5343 207.201 30.2223 205.825 30.7137ZM229 1.02301L228.788 7.21727L228.984 12.3629H222.908L223.11 7.58388V6.82437L222.111 7.03693L221.056 6.24634V1.83282L227.568 0L229 1.02301ZM224.186 5.49521V7.60653L224.031 11.2868H227.866L227.711 7.21913L227.905 1.56313L227.362 1.17573L222.133 2.64784V5.70828L222.365 5.88261L224.186 5.49521Z" fill="#333333"/>
</g>
<defs>
<filter id="filter0_d" x="0" y="0" width="233" height="59.9408" filterUnits="userSpaceOnUse" color-interpolation-filters="sRGB">
<feFlood flood-opacity="0" result="BackgroundImageFix"/>
<feColorMatrix in="SourceAlpha" type="matrix" values="0 0 0 0 0 0 0 0 0 0 0 0 0 0 0 0 0 0 127 0"/>
<feOffset dy="4"/>
<feGaussianBlur stdDeviation="2"/>
<feColorMatrix type="matrix" values="0 0 0 0 0 0 0 0 0 0 0 0 0 0 0 0 0 0 0.25 0"/>
<feBlend mode="normal" in2="BackgroundImageFix" result="effect1_dropShadow"/>
<feBlend mode="normal" in="SourceGraphic" in2="effect1_dropShadow" result="shape"/>
</filter>
</defs>
</svg>
