<svg width="225" height="32" viewBox="0 0 225 32" fill="none" xmlns="http://www.w3.org/2000/svg">
<path fill-rule="evenodd" clip-rule="evenodd" d="M0.448813 21.7249L0.0191101 0.0488154L13.2971 0C16.6371 4.59103e-06 19.3058 0.810894 21.1988 2.53231C23.1347 4.23304 24.0623 6.65878 24.0623 9.70073C24.0623 11.642 23.5671 13.4572 22.5805 15.1344C21.7023 16.6274 20.5019 17.9032 18.9922 18.9641C21.4038 22.69 23.5876 25.8364 25.5441 28.4061L25.7079 28.6212L25.5375 30.1546L25.1251 30.2903C22.7238 31.0802 20.1847 31.5684 17.51 31.7572L17.2437 31.776L16.1905 30.9203L16.1264 30.8006C14.3536 27.4913 12.8051 24.4474 11.4814 21.6693H8.6701L8.9478 31.2497H0L0.448813 21.7249ZM14.0722 13.2673L14.0771 13.2599C14.5379 12.5687 14.7967 11.6309 14.7967 10.395C14.7967 9.05646 14.4423 8.2133 13.8689 7.7087L13.8581 7.69922L13.8478 7.68929C13.2821 7.14718 12.3136 6.78336 10.8031 6.72082L8.96142 6.82314L8.80224 14.7025L12.028 14.8508C12.9961 14.4618 13.6562 13.9279 14.0675 13.2747L14.0722 13.2673ZM47.1881 28.1687L47.1849 28.1721C44.8958 30.5607 41.6752 31.7126 37.6257 31.7126C33.9114 31.7126 30.939 30.6354 28.8063 28.4027L28.8044 28.4008L28.8026 28.3988C26.7067 26.1698 25.7034 23.0673 25.7034 19.1886C25.7034 15.0877 26.8027 11.8128 29.088 9.46125C31.3776 7.10525 34.5971 5.97043 38.6439 5.97043C42.3526 5.97043 45.3099 7.02897 47.4136 9.2304C49.5447 11.3971 50.5662 14.4258 50.5662 18.2167C50.5662 22.4063 49.4691 25.7554 47.1881 28.1687ZM35.7409 13.3413L35.7297 13.3474C35.311 13.5777 34.9507 14.0224 34.7072 14.8069L34.7062 14.8102L34.7052 14.8134C34.4591 15.5789 34.3211 16.7161 34.3211 18.263C34.3211 20.2418 34.4587 21.7141 34.7134 22.7117C34.995 23.6628 35.4018 24.2375 35.8715 24.5506C36.3655 24.8799 37.1251 25.0851 38.2274 25.0851C39.3098 25.0851 40.0544 24.9227 40.5286 24.6657C40.9667 24.3989 41.3253 23.9375 41.5644 23.1936C41.8102 22.4289 41.9485 21.2771 41.9485 19.6977C41.9485 17.7434 41.81 16.2823 41.5533 15.284C41.3017 14.3055 40.8964 13.7274 40.4101 13.418L40.4041 13.4141L40.3981 13.4101C39.9064 13.0823 39.1333 12.8756 37.9959 12.8756C36.9465 12.8756 36.2215 13.0529 35.7518 13.3347L35.7409 13.3413ZM70.6232 7.40316L69.435 14.4248L67.6789 14.8239L67.4317 14.6462C66.4877 13.9677 65.5205 13.4412 64.5301 13.0625L64.5269 13.0613L64.5237 13.06C63.5462 12.6749 62.7713 12.5054 62.1796 12.5054C61.6351 12.5054 61.2974 12.6344 61.0848 12.8116L61.0825 12.8135L61.0801 12.8155C60.8948 12.9671 60.8188 13.1313 60.8188 13.357C60.8188 13.6059 60.9223 13.8432 61.297 14.0857C61.7654 14.3887 62.6088 14.8003 63.8656 15.3216C65.2357 15.8513 66.3909 16.3875 67.3231 16.9328C68.3423 17.4789 69.202 18.2589 69.9026 19.2579C70.68 20.3209 71.0472 21.6241 71.0472 23.1226C71.0472 24.6304 70.6608 26.0429 69.8923 27.348C69.1332 28.6907 67.9246 29.7456 66.3207 30.5317C64.7199 31.3315 62.7582 31.7126 60.4671 31.7126C57.7033 31.7126 55.003 31.2357 52.3695 30.2839L51.8459 30.0946L52.9463 23.0206L54.3053 22.024L54.7133 22.3854C55.7391 23.294 56.8814 24.0268 58.1424 24.5847C59.4184 25.1181 60.4812 25.3628 61.3465 25.3628C61.8876 25.3628 62.2547 25.235 62.5081 25.04C62.7609 24.8456 62.8461 24.65 62.8461 24.4185C62.8461 24.1697 62.7426 23.9323 62.3679 23.6899C61.8991 23.3865 61.0545 22.9745 59.7958 22.4525C58.3911 21.8905 57.2057 21.3383 56.2463 20.7947L56.242 20.7922L56.2377 20.7897C55.2553 20.2138 54.4016 19.4231 53.6742 18.4311L53.6698 18.4251L53.6655 18.419C52.9198 17.3537 52.5714 16.0363 52.5714 14.5141C52.5714 12.9087 52.9917 11.4515 53.8397 10.1625L53.8419 10.159C54.7213 8.84007 55.9646 7.82286 57.5423 7.09876C59.1325 6.33793 60.9937 5.97043 63.1052 5.97043C65.4395 5.97043 67.7685 6.3864 70.0892 7.21294L70.6232 7.40316ZM92.3253 7.37659L91.8359 13.4672L86.2902 13.1533H86.1401L85.967 22.9774L86.2696 31.2497H77.9183L78.2745 23.6677L78.1007 13.1533H77.951L72.6501 13.4478L71.774 12.4841L72.2639 6.38698H91.6056L92.3253 7.37659ZM112.579 24.2873L113.404 25.2038L112.859 31.2497H94.5482L94.9043 23.6688L94.5673 6.38698H112.794L113.588 7.35774L113.042 13.3622L106.305 13.107H102.857L102.799 15.3658H106.075L110.448 15.2149L111.177 16.2167L110.688 22.2444L105.617 22.086L102.623 22.1239L102.597 22.98L102.662 24.5297H105.889L112.579 24.2873ZM116.464 23.6688L116.127 6.38983L127.97 6.34069C130.81 6.34069 133.101 6.99411 134.746 8.39766C136.41 9.786 137.208 11.7677 137.208 14.2364C137.208 15.78 136.803 17.2267 136 18.5643C135.312 19.7118 134.392 20.7034 133.252 21.541C134.632 23.582 136.363 25.9124 138.449 28.5335L138.624 28.7537L138.447 30.2612L138.021 30.3884C135.603 31.1107 133.299 31.5383 131.11 31.6652L130.872 31.6789L129.58 30.7561L129.505 30.6199C128.279 28.3708 127.148 26.1895 126.113 24.076H124.183L124.46 31.2497H116.107L116.464 23.6688ZM127.868 13.2339L127.861 13.2281C127.48 12.9108 126.763 12.6623 125.572 12.5993L124.42 12.6879L124.309 17.6273L126.618 17.7652C127.322 17.4944 127.759 17.1521 128.009 16.7774L128.011 16.774L128.014 16.7707C128.32 16.3229 128.497 15.7247 128.497 14.9306C128.497 14.0391 128.245 13.5315 127.875 13.2394L127.868 13.2339ZM147.742 30.3525L147.737 30.3576C146.879 31.2153 145.755 31.62 144.436 31.62C143.139 31.62 142.043 31.2583 141.262 30.4384C140.492 29.6296 140.15 28.5322 140.15 27.2418C140.15 25.9058 140.531 24.7677 141.356 23.9052L141.356 23.9048C142.216 23.0082 143.361 22.5858 144.714 22.5858C145.983 22.5858 147.058 22.9492 147.835 23.7614C148.636 24.565 148.999 25.6466 148.999 26.9178C148.999 28.2886 148.601 29.4563 147.747 30.3473L147.742 30.3525ZM171.888 28.1687L171.885 28.1721C169.596 30.5607 166.376 31.7126 162.326 31.7126C158.612 31.7126 155.639 30.6354 153.507 28.4027L153.505 28.4008L153.503 28.3988C151.407 26.1698 150.404 23.0673 150.404 19.1886C150.404 15.0877 151.503 11.8128 153.788 9.46125C156.078 7.10525 159.297 5.97043 163.344 5.97043C167.053 5.97043 170.01 7.02897 172.114 9.2304C174.245 11.3971 175.266 14.4258 175.266 18.2167C175.266 22.4063 174.169 25.7554 171.888 28.1687ZM160.441 13.3413L160.43 13.3474C160.011 13.5777 159.651 14.0224 159.408 14.8069L159.407 14.8102L159.405 14.8134C159.159 15.5789 159.021 16.7161 159.021 18.263C159.021 20.2417 159.159 21.7141 159.414 22.7117C159.695 23.6628 160.102 24.2375 160.572 24.5506C161.066 24.8799 161.825 25.0851 162.928 25.0851C164.01 25.0851 164.755 24.9227 165.229 24.6657C165.667 24.3989 166.026 23.9375 166.265 23.1936C166.51 22.4289 166.649 21.2771 166.649 19.6977C166.649 17.7434 166.51 16.2823 166.254 15.284C166.002 14.3056 165.597 13.7274 165.11 13.418L165.104 13.4141L165.098 13.4101C164.607 13.0823 163.834 12.8756 162.696 12.8756C161.647 12.8756 160.922 13.0529 160.452 13.3347L160.441 13.3413ZM193.818 18.3838L186.432 6.38698H177.821L178.158 23.6688L177.802 31.2497H185.499L185.249 22.1444L185.278 19.2837L192.619 31.2497H201.288L200.985 22.9331L201.372 6.20685L193.605 6.6571L193.818 18.3838ZM223.991 24.2873L224.816 25.2038L224.272 31.2497H205.96L206.317 23.6688L205.98 6.38698H224.206L225 7.35773L224.454 13.3622L217.717 13.107H214.269L214.211 15.3658H217.487L221.86 15.2149L222.589 16.2167L222.1 22.2444L217.029 22.086L214.035 22.1239L214.009 22.9798L214.074 24.5297H217.301L223.991 24.2873Z" fill="#333333"/>
</svg>
